<?xml version="1.0" encoding="UTF-8"?>
<svg id="Layer_2" data-name="Layer 2" xmlns="http://www.w3.org/2000/svg" viewBox="0 0 230.13 48.89">
  <defs>
    <style>
      .cls-1 {
        font-family: ProximaNova-Bold, 'Proxima Nova';
        font-size: 19px;
        font-weight: 700;
      }

      .cls-1, .cls-2 {
        fill: #fff;
      }

      .cls-3 {
        letter-spacing: -.03em;
      }

      .cls-4 {
        letter-spacing: -.03em;
      }
    </style>
  </defs>
  <g>
    <g>
      <path class="cls-2" d="M0,48.03V0h18.94c15.05,0,25.49,9.58,25.49,24.05s-10.44,23.98-25.49,23.98H0ZM10.22,39.03h8.71c9.5,0,15.05-6.84,15.05-14.98s-5.18-15.05-15.05-15.05h-8.71v30.03Z"/>
      <path class="cls-2" d="M66.17,12.38c10.37,0,17.43,7.78,17.43,19.15v2.02h-25.85c.58,4.39,4.1,8.06,10.01,8.06,3.24,0,7.06-1.3,9.29-3.46l4.03,5.9c-3.53,3.24-8.93,4.83-14.33,4.83-10.58,0-18.58-7.13-18.58-18.29,0-10.08,7.42-18.22,18-18.22ZM57.6,27.36h17.14c-.22-3.31-2.52-7.71-8.57-7.71-5.69,0-8.14,4.25-8.57,7.71Z"/>
    </g>
    <g>
      <path class="cls-2" d="M105.94,26.86c.23.4.67.66,1.13.66h.01c.46,0,.9-.25,1.13-.64l7.42-12.14c.3-.52.28-1.14-.06-1.64-.29-.42-.77-.67-1.29-.67h-5.66c-.6,0-1.1.41-1.23.99l-.03.14v.14c.02.24,0,.99-.28,1.53-.44.89-3.4,6.49-3.44,6.58-.19.39-.18.86.05,1.27l2.24,3.77Z"/>
      <path class="cls-2" d="M116.11,46.73l-8.05-13.48c-.47-.78-1.75-.78-2.21,0l-2.25,3.7c-.39.64-.4,1.27-.03,1.92l5.31,9.12c.28.47.78.76,1.33.76h4.76c.48,0,.93-.26,1.16-.68.24-.42.23-.93-.01-1.34Z"/>
      <path class="cls-2" d="M102.9,29.46h0c-1.55-2.8-8.99-16.23-9-16.24-.27-.48-.79-.78-1.34-.78h-5.46c-.49,0-.93.26-1.17.69-.23.42-.22.94.03,1.32l9.39,15.69-9.88,16.28c-.31.53-.29,1.16.07,1.67.29.4.76.64,1.27.64h5.08c.54,0,1.05-.29,1.33-.76l9.65-16.53c.36-.61.37-1.37.03-1.99Z"/>
    </g>
  </g>
  <text class="cls-1" transform="translate(134.85 26.96)"><tspan x="0" y="0">Find</tspan><tspan class="cls-4" x="37.79" y="0">e</tspan><tspan x="47.65" y="0">x</tspan><tspan class="cls-3" x="57.23" y="0">’</tspan><tspan x="61.5" y="0">s AI</tspan><tspan x="0" y="21">Assistant</tspan></text>
</svg>