<?xml version="1.0" encoding="UTF-8"?>
<svg id="Layer_2" data-name="Layer 2" xmlns="http://www.w3.org/2000/svg" viewBox="0 0 208.28 208.28">
  <defs>
    <style>
      .cls-1 {
        font-size: 19px;
      }

      .cls-1, .cls-2, .cls-3 {
        fill: #fff;
      }

      .cls-1, .cls-3 {
        font-family: ProximaNova-Bold, 'Proxima Nova';
        font-weight: 700;
      }

      .cls-4 {
        fill: #1b1f22;
      }

      .cls-3 {
        font-size: 72px;
        letter-spacing: -.02em;
      }

      .cls-5 {
        letter-spacing: -.03em;
      }

      .cls-6 {
        letter-spacing: -.03em;
      }
    </style>
  </defs>
  <circle class="cls-4" cx="104.14" cy="104.14" r="104.14"/>
  <text class="cls-1" transform="translate(47.91 133.99)"><tspan x="0" y="0">Find</tspan><tspan class="cls-6" x="37.79" y="0">e</tspan><tspan x="47.65" y="0">x</tspan><tspan class="cls-5" x="57.23" y="0">’</tspan><tspan x="61.5" y="0">s AI</tspan><tspan x="0" y="21">Assistant</tspan></text>
  <text class="cls-3" transform="translate(44.34 108.88)"><tspan x="0" y="0">De</tspan></text>
  <g>
    <path class="cls-2" d="M155.03,87.7c.23.4.67.66,1.13.66h.01c.46,0,.9-.25,1.13-.64l7.42-12.14c.3-.52.28-1.14-.06-1.64-.29-.42-.77-.67-1.29-.67h-5.66c-.6,0-1.1.41-1.23.99l-.03.14v.14c.02.24,0,.99-.28,1.53-.44.89-3.4,6.49-3.44,6.58-.19.39-.18.86.05,1.27l2.24,3.77Z"/>
    <path class="cls-2" d="M165.2,107.58l-8.05-13.48c-.47-.78-1.75-.78-2.21,0l-2.25,3.7c-.39.64-.4,1.27-.03,1.92l5.31,9.12c.28.47.78.76,1.33.76h4.76c.48,0,.93-.26,1.16-.68.24-.42.23-.93-.01-1.34Z"/>
    <path class="cls-2" d="M152,90.3h0c-1.55-2.8-8.99-16.23-9-16.24-.27-.48-.79-.78-1.34-.78h-5.46c-.49,0-.93.26-1.17.69-.23.42-.22.94.03,1.32l9.39,15.69-9.88,16.28c-.31.53-.29,1.16.07,1.67.29.4.76.64,1.27.64h5.08c.54,0,1.05-.29,1.33-.76l9.65-16.53c.36-.61.37-1.37.03-1.99Z"/>
  </g>
</svg>