<?xml version="1.0" encoding="UTF-8"?>
<svg id="Layer_2" data-name="Layer 2" xmlns="http://www.w3.org/2000/svg" viewBox="0 0 553.8 554.4">
  <defs>
    <style>
      .cls-1 {
        fill: #1b1f22;
      }

      .cls-2 {
        fill: #d43d27;
      }

      .cls-3 {
        fill: #fff;
      }
    </style>
  </defs>
  <path class="cls-2" d="M524.27,204.96H180.35c-14.89,0-27.2,11.02-29.23,25.35,21.78,15.7,38.21,38.34,46.06,64.69,17.23-18.7,41.93-30.43,69.37-30.43,52.08,0,94.31,42.22,94.31,94.31s-42.22,94.31-94.31,94.31c-37.72,0-70.25-22.14-85.34-54.14-8.2,12.11-18.51,22.68-30.39,31.2v19.74c0,16.31,13.22,29.54,29.54,29.54h109.51v59.49c0,3.36.95,6.74,3.02,9.39,5.08,6.51,13.74,7.69,20.11,3.7l116.14-72.58h95.13c16.31,0,29.54-13.22,29.54-29.54v-215.49c0-16.31-13.22-29.54-29.54-29.54Z"/>
  <g>
    <path class="cls-3" d="M452.23,342.55c.95,1.64,2.71,2.67,4.6,2.69h.06c1.89,0,3.65-1,4.6-2.6l30.12-49.29c1.22-2.1,1.12-4.64-.25-6.64-1.17-1.69-3.12-2.7-5.22-2.7h-22.99c-2.42,0-4.47,1.65-5,4.02l-.12.56.03.55c.05.98-.06,4-1.16,6.22-1.8,3.63-13.78,26.35-13.98,26.73-.76,1.6-.71,3.47.21,5.15l9.1,15.31Z"/>
    <path class="cls-3" d="M493.51,423.23l-32.7-54.71c-1.9-3.18-7.1-3.15-8.96-.03l-9.15,15.01c-1.58,2.6-1.63,5.14-.12,7.79l21.57,37.02c1.12,1.91,3.18,3.1,5.38,3.1h19.33c1.95,0,3.76-1.05,4.72-2.74.96-1.68.93-3.77-.06-5.43Z"/>
    <path class="cls-3" d="M439.91,353.11v-.02c-6.3-11.37-36.51-65.86-36.53-65.89-1.11-1.96-3.19-3.18-5.43-3.18h-22.15c-1.97,0-3.79,1.07-4.74,2.8-.95,1.71-.89,3.8.1,5.38l38.12,63.69-40.11,66.09c-1.27,2.13-1.17,4.72.27,6.79,1.17,1.64,3.09,2.62,5.15,2.62h20.61c2.21,0,4.28-1.18,5.41-3.1l39.19-67.11c1.45-2.47,1.49-5.57.11-8.08Z"/>
  </g>
  <path class="cls-1" d="M146.06,179.85l-11.32-31.01H54.38l-11.33,31.01H.99L70.56,0h48l69.3,179.85h-41.79ZM94.56,33.17l-29.93,82.51h59.59l-29.66-82.51Z"/>
  <path class="cls-1" d="M207.27,138.86c9.44,8.9,28.85,17.8,45.03,17.8,14.83,0,21.84-5.12,21.84-13.21,0-9.17-11.33-12.4-26.15-15.37-22.38-4.31-51.23-9.71-51.23-40.72,0-21.84,19.14-40.98,53.39-40.98,22.11,0,39.64,7.55,52.31,17.8l-13.48,23.46c-7.82-8.36-22.65-15.1-38.56-15.1-12.4,0-20.49,4.58-20.49,12.13,0,8.09,10.25,11.05,24.81,14.02,22.38,4.31,52.31,10.25,52.31,42.6,0,24-20.22,41.79-56.35,41.79-22.65,0-44.49-7.55-58.24-20.22l14.83-24Z"/>
  <path class="cls-1" d="M416.78,179.85l-34.51-50.15-15.64,16.72v33.44h-34.24V0h34.24v107.59l49.34-57.97h42.06l-51.5,59.05,53.12,71.18h-42.87Z"/>
  <g>
    <path class="cls-1" d="M0,428.5v-194.96h76.87c61.09,0,103.47,38.88,103.47,97.63s-42.39,97.34-103.47,97.34H0ZM41.5,391.96h35.37c38.58,0,61.09-27.77,61.09-60.8s-21.05-61.09-61.09-61.09h-35.37v121.89Z"/>
    <path class="cls-1" d="M268.6,283.81c42.09,0,70.74,31.57,70.74,77.75v8.18h-104.94c2.34,17.83,16.66,32.74,40.63,32.74,13.16,0,28.65-5.26,37.71-14.03l16.37,23.97c-14.32,13.15-36.24,19.59-58.17,19.59-42.97,0-75.41-28.94-75.41-74.25,0-40.92,30.1-73.95,73.07-73.95ZM233.82,344.61h69.57c-.88-13.45-10.23-31.28-34.79-31.28-23.09,0-33.03,17.25-34.78,31.28Z"/>
  </g>
</svg>